<?xml version="1.0" encoding="utf-8"?>
<!-- Generator: Adobe Illustrator 19.0.0, SVG Export Plug-In . SVG Version: 6.00 Build 0)  -->
<svg version="1.1" id="Layer_1" xmlns="http://www.w3.org/2000/svg" xmlns:xlink="http://www.w3.org/1999/xlink" x="0px" y="0px"
	 viewBox="0 0 512 512" style="enable-background:new 0 0 512 512;" xml:space="preserve">
<g id="XMLID_2_">
	<path id="XMLID_8_" d="M349.1,232.3c38.2,0,69.8-31.7,69.8-69.8s-30.7-69.8-69.8-69.8s-69.8,31.7-69.8,69.8
		S310.9,232.3,349.1,232.3z M162.9,232.3c38.2,0,69.8-31.7,69.8-69.8S202,92.6,162.9,92.6s-69.8,31.7-69.8,69.8
		S124.7,232.3,162.9,232.3z M162.9,278.8c-54,0-162.9,27-162.9,81.9v58.6h325.8v-58.6C325.8,305.8,216.9,278.8,162.9,278.8z
		 M349.1,278.8c-6.5,0-14,0.9-22.3,0.9c27,19.5,45.6,45.6,45.6,80.1v58.6H512v-58.6C512,305.8,403.1,278.8,349.1,278.8z"/>
</g>
</svg>
